<?xml version="1.0" encoding="utf-8"?>
<!-- Generator: Adobe Illustrator 22.1.0, SVG Export Plug-In . SVG Version: 6.00 Build 0)  -->
<svg version="1.1" id="图层_1" xmlns="http://www.w3.org/2000/svg" xmlns:xlink="http://www.w3.org/1999/xlink" x="0px" y="0px"
	 viewBox="0 0 200 200" style="enable-background:new 0 0 200 200;" xml:space="preserve">
<style type="text/css">
	.st0{fill:url(#SVGID_1_);}
	.st1{fill:url(#SVGID_2_);}
	.st2{fill:none;}
</style>
<radialGradient id="SVGID_1_" cx="127.9152" cy="118.8958" r="72.8654" gradientUnits="userSpaceOnUse">
	<stop  offset="0" style="stop-color:#E4E500"/>
	<stop  offset="1" style="stop-color:#E73E0C"/>
</radialGradient>
<path class="st0" d="M104,157c0-20,12-30.1,18.1-35.9c0,0-11.5,24.7,9.3,42.1c9.9,8.3,21.6,12.5,31.2,14.7
	c22.8-18.3,37.4-46.4,37.4-77.9c0-11.7-2-22.8-5.7-33.2c-0.7,0.3-45.9,18.9-80.6,51.5c-34.6,32.5-43.5,58.8-48.5,75.5
	c10.8,4,22.6,6.2,34.8,6.2c9.2,0,18.2-1.3,26.7-3.6l-0.1-0.1C126.6,196.2,104,177,104,157z"/>
<radialGradient id="SVGID_2_" cx="100.1709" cy="89.7321" r="90.7295" gradientUnits="userSpaceOnUse">
	<stop  offset="0" style="stop-color:#3CF3F8"/>
	<stop  offset="1" style="stop-color:#0021AA"/>
</radialGradient>
<path class="st1" d="M57.9,121.9c0,0,61.5-51.6,136-55.6l0.2-0.1C180.2,27.6,143.3,0,100,0c-8,0-15.8,1-23.3,2.7
	c-1,0.2-2,0.7-2.7,1.5c-0.5,0.5-0.7,1-0.7,1.5c0.1,4.9,21,6.6,25.2,6.9c0.3,0,0.6,0,0.7,0c0,0-0.3,0-0.7,0c-3.8,0-20.2,1.5-22.1,7.2
	c-2.1,6.1,11.3,13.8,11.3,13.8s-12.4-5.5-15.4-2.1c-3.9,3.8,10.6,20.4,10.6,20.4c-6.6-5.6-15.6-13.4-20.6-10.6
	c-5,2.8-1.8,16.8-1.8,16.8s-4.2-12.5-9.3-11.7c-6.2,1-9.7,23.2-9.7,23.2c1.3-15.5-0.4-26.8-5-27.5C31.9,41.2,25.1,52,25.1,52
	c1.6-7.6,0.4-7.8-0.6-9.5c-0.3-0.5-0.9-0.8-1.6-1c-2.1-0.5-4.3,0.4-5.6,2.2C6.4,59.7,0,79.1,0,100c0,26.2,10.1,50,26.6,67.9l0,0
	l17.1-37.7l10.9-24.2l7.4-16.2c0,0,7.4-12.2,4.2-19.7c-2-4.8-5.4-6-6.5-6.6L126.8,45l-13.9,31.9C112.8,76.9,60.1,116.2,57.9,121.9z"
	/>
<path class="st2" d="M99.9,30.9c0.3,0,0.5,0,0.5,0C100.3,30.9,100.1,30.9,99.9,30.9z"/>
</svg>
